<svg width="55" height="88" viewBox="0 0 55 88" fill="none" xmlns="http://www.w3.org/2000/svg">
<path d="M40.0819 18H36.9746C36.5509 18 36.1977 18.4375 36.1977 18.9625V44.5125V44.6C36.1977 49.9375 32.7373 54.225 28.4294 54.225C24.1215 54.225 20.661 49.9375 20.661 44.6V44.5125V18.9625C20.661 18.4375 20.3079 18 19.8842 18H16.7768C16.3531 18 16 18.4375 16 18.9625V44.6C16 53 21.4379 59.825 28.2175 60H28.5H28.7825C35.4915 59.825 41 53 41 44.6V18.9625C40.9294 18.4375 40.5763 18 40.0819 18Z" fill="black"/>
<path d="M53.7701 0.277164H1.31651C0.762184 0.277164 0.346436 0.692913 0.346436 1.24724V41.9906V46.7717V87.0299C0.346436 87.5842 0.762184 88 1.31651 88H53.7701C54.3244 88 54.7401 87.5842 54.7401 87.0299V46.7717V41.9906V1.24724C54.7401 0.692913 54.3244 0.277164 53.7701 0.277164ZM4.78108 5.68189V5.19685C4.78108 4.91968 4.98896 4.64252 5.33541 4.64252H5.82045H49.4047H49.8897C50.1669 4.64252 50.4441 4.85039 50.4441 5.19685V5.68189V44.9008L28.3401 67.0047L27.9937 67.3512C27.7858 67.5591 27.4393 67.5591 27.2315 67.3512L26.885 67.0047L4.78108 44.9008V5.68189ZM50.3055 82.5953V83.0803C50.3055 83.3575 50.0976 83.6346 49.7512 83.6346H49.2661H5.75116H5.26612C4.98896 83.6346 4.71179 83.4268 4.71179 83.0803V82.5953V51.137L26.8157 73.2409C27.1622 73.5874 27.7858 73.5874 28.2016 73.2409L50.3055 51.137V82.5953Z" fill="black"/>
</svg>
